Coordinates
version=1
nRows=32
nColumns=12
inDegrees=yes

Units are S.I. units (second, meters, Newtons, ...)
Angles are in degrees

endheader
time	SC_y	SC_z	SC_x	AC_y	AC_z	AC_x	GH_y	GH_z	GH_yy	EL_x	PS_y
       0.0              -24.77          38.77          68.78          36.01         -11.65          1.355          156.5          64.62         -107.1          115.7          65.43
   0.03022              -24.77          38.77          68.77          36.02         -11.65          1.356          156.5          64.62         -107.0          115.7          65.44
   0.06044              -24.77          38.76          68.77          36.02         -11.65          1.357          156.4          64.62         -107.0          115.7          65.44
   0.09066              -24.77          38.76          68.77          36.02         -11.66          1.358          156.4          64.61         -106.9          115.7          65.45
    0.1209              -24.77          38.76          68.77          36.03         -11.66           1.36          156.4          64.61         -106.9          115.7          65.46
    0.1511              -24.77          38.75          68.77          36.03         -11.66          1.361          156.4          64.61         -106.9          115.7          65.47
    0.1813              -24.77          38.75          68.77          36.04         -11.66          1.363          156.4          64.61         -106.8          115.7          65.48
    0.2115              -24.77          38.74          68.76          36.04         -11.66          1.364          156.3           64.6         -106.8          115.7          65.49
    0.2418              -24.77          38.74          68.76          36.05         -11.66          1.366          156.3           64.6         -106.7          115.7           65.5
     0.272              -24.77          38.73          68.76          36.05         -11.66          1.368          156.3           64.6         -106.7          115.7          65.51
    0.3022              -24.77          38.72          68.76          36.06         -11.66           1.37          156.2          64.59         -106.6          115.7          65.52
    0.3324              -24.77          38.72          68.75          36.07         -11.66          1.372          156.2          64.59         -106.6          115.7          65.53
    0.3626              -24.76          38.71          68.75          36.08         -11.66          1.374          156.2          64.58         -106.5          115.7          65.55
    0.3929              -24.76           38.7          68.75          36.08         -11.66          1.377          156.1          64.58         -106.4          115.7          65.56
    0.4231              -24.76          38.69          68.74          36.09         -11.66           1.38          156.1          64.57         -106.3          115.7          65.58
    0.4533              -24.76          38.69          68.74           36.1         -11.66          1.383          156.0          64.57         -106.2          115.7          65.59
    0.4835              -24.76          38.68          68.74          36.11         -11.66          1.386          156.0          64.56         -106.2          115.7          65.61
    0.5138              -24.76          38.66          68.73          36.13         -11.67           1.39          155.9          64.56         -106.1          115.6          65.63
     0.544              -24.76          38.65          68.73          36.14         -11.67          1.394          155.8          64.55         -105.9          115.6          65.66
    0.5742              -24.76          38.64          68.72          36.15         -11.67          1.398          155.8          64.54         -105.8          115.6          65.68
    0.6044              -24.76          38.62          68.72          36.17         -11.67          1.403          155.7          64.53         -105.7          115.6          65.71
    0.6346              -24.75          38.61          68.71          36.18         -11.67          1.408          155.6          64.52         -105.5          115.6          65.74
    0.6649              -24.75          38.59           68.7           36.2         -11.67          1.413          155.5          64.51         -105.4          115.6          65.77
    0.6951              -24.75          38.57          68.69          36.22         -11.67           1.42          155.4           64.5         -105.2          115.6          65.81
    0.7253              -24.75          38.55          68.68          36.25         -11.68          1.427          155.3          64.49         -105.0          115.6          65.85
    0.7555              -24.75          38.53          68.67          36.27         -11.68          1.435          155.1          64.47         -104.8          115.5           65.9
    0.7857              -24.74           38.5          68.66           36.3         -11.68          1.443          155.0          64.46         -104.5          115.5          65.95
     0.816              -24.74          38.47          68.65          36.33         -11.69          1.453          154.8          64.44         -104.2          115.5           66.0
    0.8462              -24.74          38.44          68.64          36.37         -11.69          1.464          154.6          64.42         -103.9          115.5          66.07
    0.8764              -24.73           38.4          68.62          36.41         -11.69          1.477          154.4           64.4         -103.6          115.4          66.14
    0.9066              -24.73          38.35           68.6          36.46          -11.7          1.491          154.2          64.37         -103.2          115.4          66.23
    0.9368              -24.72           38.3          68.58          36.51          -11.7          1.508          153.9          64.34         -102.7          115.4          66.32
